<?xml version="1.0" encoding="UTF-8"?>
<svg id="Camada_2" data-name="Camada 2" xmlns="http://www.w3.org/2000/svg" viewBox="0 0 900 386.25">
  <defs>
    <style>
      .cls-1 {
        fill: #004c6d;
      }

      .cls-1, .cls-2 {
        stroke-width: 0px;
      }

      .cls-3 {
        font-family: Geologica-Light, Geologica;
        font-size: 67.44px;
        font-variation-settings: 'wght' 300, 'CRSV' 0, 'SHRP' 0, 'slnt' 0;
        font-weight: 300;
        letter-spacing: -.04em;
      }

      .cls-3, .cls-2 {
        fill: #00be78;
      }
    </style>
  </defs>
  <g id="Camada_1-2" data-name="Camada 1">
    <path class="cls-1" d="m661.15,99.54v151.09h-128.87V99.54c0-3.75-3.04-6.79-6.79-6.79h-14.99c-3.75,0-6.79,3.04-6.79,6.79v171.93c0,3.75,3.04,6.79,6.79,6.79h171.93c3.75,0,6.79-3.04,6.79-6.79V99.54c0-3.75-3.04-6.79-6.79-6.79h-14.49c-3.75,0-6.79,3.04-6.79,6.79Z"/>
    <path class="cls-1" d="m891.12,250.19h-150.54V120.78h150.54c3.75,0,6.79-3.04,6.79-6.79v-14.44c0-3.75-3.04-6.79-6.79-6.79h-171.93c-3.75,0-6.79,3.04-6.79,6.79v171.93c0,3.75,3.04,6.79,6.79,6.79h171.93c3.75,0,6.79-3.04,6.79-6.79v-14.49c0-3.75-3.04-6.79-6.79-6.79Z"/>
    <path class="cls-1" d="m323.64,92.75V6.79c0-3.75-3.04-6.79-6.79-6.79h-15.03c-3.75,0-6.79,3.04-6.79,6.79v264.68c0,3.75,3.04,6.79,6.79,6.79h171.93c3.75,0,6.79-3.04,6.79-6.79V99.54c0-3.75-3.04-6.79-6.79-6.79h-150.11Zm128.83,157.44h-128.83V120.82h128.83v129.37Z"/>
    <path class="cls-2" d="m262.77,87.66L183.53,8.42s-.02-.02-.02-.02l-.07-.07h0c-1.22-1.17-2.88-1.91-4.71-1.91H6.79c-3.75,0-6.79,3.04-6.79,6.79v171.93c0,1.92.8,3.64,2.08,4.87h0s79.17,79.16,79.17,79.16V99.54c0-6.55,5.33-11.88,11.88-11.88h169.65Z"/>
    <text class="cls-3" transform="translate(736.75 364.22)"><tspan x="0" y="0">TECH</tspan></text>
    <path class="cls-1" d="m265.05,92.75H93.12c-3.75,0-6.79,3.04-6.79,6.79v171.93c0,3.75,3.04,6.79,6.79,6.79h171.93c3.75,0,6.79-3.04,6.79-6.79V99.54c0-3.75-3.04-6.79-6.79-6.79Zm-21.28,157.26H114.76V121.54h129.02v128.47Z"/>
  </g>
</svg>